<?xml version="1.0" encoding="utf-8"?>
<!-- Generator: Adobe Illustrator 18.0.0, SVG Export Plug-In . SVG Version: 6.00 Build 0)  -->
<!DOCTYPE svg PUBLIC "-//W3C//DTD SVG 1.1//EN" "http://www.w3.org/Graphics/SVG/1.1/DTD/svg11.dtd">
<svg version="1.1" id="Layer_1" xmlns="http://www.w3.org/2000/svg" xmlns:xlink="http://www.w3.org/1999/xlink" x="0px" y="0px"
	 viewBox="0 0 64 64" enable-background="new 0 0 64 64" xml:space="preserve">
<path fill="#231F20" d="M32,0C14.4,0,0,14.4,0,32s14.4,32,32,32s32-14.4,32-32S49.6,0,32,0z M60,32c0,1.9-0.2,3.8-0.6,5.6
	c-1.2-1.2-2.8-1.9-4.2-2c-0.9,0-1.8,0-2.7,0.1c-1.1,0.1-2.1,0.2-3,0c-1.3-1.2-3-8-2.3-9.6c1.5-1.7,4.2-7.7,3.7-10.3
	c-0.2-1.2-1-1.7-1.4-1.9c-1.2-0.5-2.6-0.5-4.2-0.4c-0.6,0-1.6,0.1-2,0c-1.2-0.7-5-5-5.3-6.4c-0.3-1.1-0.4-1.7-0.4-2.5
	C50.3,7.1,60,18.5,60,32z M7.5,18.5c3.4,2.2,10,5.4,12.7,3.2c0.3-0.2,0.7-0.6,1.1-1c0.3-0.3,0.7-0.6,1-0.9c1.5,1.1,4,3.2,4.5,4
	c0.1,0.4,0.1,0.6,0.1,0.7c-0.7,1.1-3.9,5.4-4.7,6.2c-0.3,0.2-0.9,0.4-1.9,0.4l-0.5,0c-1.6,0-3.8,0-5.4,1.6c-2.1,2.2-1.7,4.8-1.3,6.8
	c-1.5,0.8-5.5,1.6-7.5,1.7c-1-2.9-1.6-6-1.6-9.3C4,27.1,5.3,22.5,7.5,18.5z M27,59.5c0.5-2.1,0.4-4.3-0.3-6.4
	c-0.2-0.5-0.5-1.2-0.9-2c-0.4-0.9-1.4-2.7-1.4-3.4c0.4-2,2.5-3.3,4.4-3.4c0.9,0.4,3.2,2.6,4.5,3.8c1.8,1.7,2.8,2.7,3.7,3.1
	c2.2,1.1,7.3,2.7,11.4,3.5C43.7,58,38.1,60,32,60C30.3,60,28.6,59.8,27,59.5z M52.3,51.3c-2.7-0.1-10.6-2.1-13.5-3.6
	c-0.4-0.2-1.8-1.5-2.8-2.5c-3.5-3.4-5.4-4.9-7.2-4.9c-3.4,0.1-7.6,2.5-8.4,6.8c-0.3,1.5,0.6,3.4,1.8,5.8c0.3,0.5,0.6,1.2,0.7,1.5
	c0.4,1.4,0.5,2.9,0.2,4.2c-6.8-2.3-12.5-7.1-15.8-13.4c3.2-0.3,7.3-1.4,8.9-2.8c1.1-1,1.1-2.1,1-2.7L17.1,39
	c-0.4-1.9-0.5-2.7,0.2-3.4c0.4-0.4,1.6-0.4,2.6-0.4l0.6,0c1.8,0,3.2-0.5,4.3-1.3c0.7-0.5,5.6-7,5.9-8c0.4-1.2,0.1-2.5-0.1-3.2
	c-0.6-2.3-6.7-6.9-7.7-7.2c-1.5-0.5-2.7,0.6-4.5,2.3c-0.3,0.3-0.5,0.5-0.7,0.7c-1.4,0.1-5.6-1.7-8.1-3.3C14.7,8.4,22.9,4,32,4
	c0.5,0,1,0,1.6,0c0,1.3,0.1,2.4,0.6,4.1c0.7,2.5,5.8,8.4,7.9,9.1c1,0.3,2.2,0.3,3.5,0.2c0.4,0,0.9,0,1.4-0.1c-0.4,1.8-1.9,5.2-2.7,6
	c-2.2,2.2-0.7,8-0.2,9.7c1.1,3.8,2.6,6,4.4,6.4c1.6,0.4,3.1,0.3,4.4,0.2c0.8-0.1,1.5-0.1,2.2-0.1c1,0,2.6,1.5,2.9,2.9
	C56.6,45.8,54.7,48.8,52.3,51.3z"/>
</svg>
